# xmcd CD database file
#
# Track frame offsets:
#	150
#	7143
#	25793
#	41635
#	42357
#	57806
#	79935
#	96378
#	107943
#	121953
#	135686
#	139115
#	155980
#	180971
#	203931
#	221473
#	240290
#	246842
#	269558
#	276797
#
# Disc length: 4002 seconds
#
# Revision: 1
# Processed by: cddbd v1.5.2PL0 Copyright (c) Steve Scherf et al.
# Submitted via: CDex 1.51
#
DISCID=250fa014
DTITLE=MAP - Les Bronzes Font Du Ch'ti
DYEAR=2009
DGENRE=Rap
TTITLE0=MAP De Retour (Intro)
TTITLE1=A L'Abordage (Mazel-Na Thouar)
TTITLE2=Appelle-Moi Camarade (feat. Kenny Arkana)
TTITLE3=Ch'tite Interlude
TTITLE4=Les Bronzes Font Du Ch'ti
TTITLE5=Chouffou Ma Sar (La Lettre)
TTITLE6=Combien Ca Coute L'Indifference
TTITLE7=Profession Saltimbanque (Part 1)
TTITLE8=Profession Saltimbanque (Part 2)
TTITLE9=Gduferavek
TTITLE10=L'Ecole Des Nazes (Interlude)
TTITLE11=La Vie C'est Pas Facile (feat. Kekele)
TTITLE12=Palestine (N'har Jedid)
TTITLE13=Ils Disaient...
TTITLE14=Faudra Faire Avec
TTITLE15=La Chasse Est Ouverte
TTITLE16=Lettre Au Ministre (feat. Jeanne Moreau)
TTITLE17=Un Air De Eevolution
TTITLE18=Pendant Ce Temps-La (Outro)
TTITLE19=Salutations Revolutionnaires (feat. Mouss Et Hakim)
EXTD=YEAR: 2009
EXTT0=
EXTT1=
EXTT2=
EXTT3=
EXTT4=
EXTT5=
EXTT6=
EXTT7=
EXTT8=
EXTT9=
EXTT10=
EXTT11=
EXTT12=
EXTT13=
EXTT14=
EXTT15=
EXTT16=
EXTT17=
EXTT18=
EXTT19=
PLAYORDER=
